<?xml version="1.0" encoding="UTF-8" standalone="no"?>
<svg
   xmlns:dc="http://purl.org/dc/elements/1.1/"
   xmlns:cc="http://creativecommons.org/ns#"
   xmlns:rdf="http://www.w3.org/1999/02/22-rdf-syntax-ns#"
   xmlns:svg="http://www.w3.org/2000/svg"
   xmlns="http://www.w3.org/2000/svg"
   xmlns:sodipodi="http://sodipodi.sourceforge.net/DTD/sodipodi-0.dtd"
   xmlns:inkscape="http://www.inkscape.org/namespaces/inkscape"
   version="1.1"
   id="Capa_1"
   x="0px"
   y="0px"
   viewBox="0 0 508 504"
   xml:space="preserve"
   sodipodi:docname="logo_dark.svg"
   width="508"
   height="504"
   inkscape:version="1.0.2 (e86c870879, 2021-01-15)"><metadata
   id="metadata45"><rdf:RDF><cc:Work
       rdf:about=""><dc:format>image/svg+xml</dc:format><dc:type
         rdf:resource="http://purl.org/dc/dcmitype/StillImage" /><dc:title></dc:title></cc:Work></rdf:RDF></metadata><defs
   id="defs43" /><sodipodi:namedview
   pagecolor="#ffffff"
   bordercolor="#666666"
   borderopacity="1"
   objecttolerance="10"
   gridtolerance="10"
   guidetolerance="10"
   inkscape:pageopacity="0"
   inkscape:pageshadow="2"
   inkscape:window-width="1920"
   inkscape:window-height="1001"
   id="namedview41"
   showgrid="false"
   inkscape:zoom="0.63379982"
   inkscape:cx="-28.594423"
   inkscape:cy="311.36459"
   inkscape:window-x="-9"
   inkscape:window-y="-9"
   inkscape:window-maximized="1"
   inkscape:current-layer="Capa_1"
   fit-margin-left="50"
   fit-margin-right="50"
   fit-margin-top="20"
   fit-margin-bottom="20"
   inkscape:document-rotation="0" />
<g
   id="g8"
   style="fill:#000000;fill-opacity:1"
   transform="translate(22.5,20.5)">
	<path
   d="m 307.5,272 h -24 c -4.142,0 -7.5,3.358 -7.5,7.5 0,4.142 3.358,7.5 7.5,7.5 h 24 c 4.142,0 7.5,-3.358 7.5,-7.5 0,-4.142 -3.358,-7.5 -7.5,-7.5 z"
   id="path2"
   style="fill:#000000;fill-opacity:1" />
	<path
   d="m 251.5,272 h -24 c -4.142,0 -7.5,3.358 -7.5,7.5 0,4.142 3.358,7.5 7.5,7.5 h 24 c 4.142,0 7.5,-3.358 7.5,-7.5 0,-4.142 -3.358,-7.5 -7.5,-7.5 z"
   id="path4"
   style="fill:#000000;fill-opacity:1" />
	<path
   d="M 427.5,192 H 411 V 71 h 16.5 c 2.841,0 5.438,-1.605 6.708,-4.146 1.271,-2.541 0.997,-5.582 -0.708,-7.854 l -24,-32 c -1.417,-1.889 -3.639,-3 -6,-3 H 293.266 l -1.204,-9.028 C 295.941,14.683 299,11.452 299,7.5 299,3.358 295.642,0 291.5,0 h -48 c -4.142,0 -7.5,3.358 -7.5,7.5 0,3.952 3.059,7.183 6.938,7.472 L 212.934,240 H 195.5 c -4.142,0 -7.5,3.358 -7.5,7.5 V 272 H 177.808 L 148.406,102.94 c 3.714,-0.448 6.593,-3.605 6.593,-7.44 0,-4.142 -3.358,-7.5 -7.5,-7.5 H 147 V 63.5 C 147,59.358 143.642,56 139.5,56 H 131 v -8.5 c 0,-4.142 -3.358,-7.5 -7.5,-7.5 -4.142,0 -7.5,3.358 -7.5,7.5 V 56 h -8.5 c -4.142,0 -7.5,3.358 -7.5,7.5 V 88 h -0.5 c -4.142,0 -7.5,3.358 -7.5,7.5 0,3.835 2.88,6.992 6.593,7.44 L 69.192,272 H 67.5 c -4.142,0 -7.5,3.358 -7.5,7.5 V 304 H 35.5 c -4.142,0 -7.5,3.358 -7.5,7.5 v 32 c 0,4.142 3.358,7.5 7.5,7.5 H 60 v 24.5 c 0,4.142 3.358,7.5 7.5,7.5 H 76 v 64.995 C 75.875,447.996 75.758,448 75.631,448 69.399,448 66.707,446.654 62.98,444.792 58.709,442.657 53.394,440 43.622,440 c -4.142,0 -7.5,3.358 -7.5,7.5 0,4.142 3.358,7.5 7.5,7.5 6.232,0 8.925,1.346 12.651,3.208 4.271,2.135 9.586,4.792 19.358,4.792 9.771,0 15.084,-2.657 19.354,-4.792 3.725,-1.862 6.417,-3.208 12.646,-3.208 6.229,0 8.919,1.346 12.644,3.208 4.27,2.135 9.583,4.792 19.353,4.792 9.771,0 15.086,-2.657 19.356,-4.792 3.726,-1.863 6.418,-3.208 12.649,-3.208 6.231,0 8.923,1.346 12.649,3.208 4.27,2.135 9.584,4.792 19.356,4.792 9.772,0 15.086,-2.657 19.356,-4.792 3.726,-1.863 6.418,-3.208 12.649,-3.208 6.227,0 8.917,1.346 12.641,3.208 4.269,2.135 9.582,4.792 19.351,4.792 9.766,0 15.077,-2.657 19.344,-4.793 3.721,-1.862 6.41,-3.207 12.632,-3.207 6.228,0 8.919,1.346 12.643,3.208 4.269,2.135 9.583,4.792 19.352,4.792 9.763,0 15.073,-2.658 19.339,-4.793 3.719,-1.861 6.407,-3.207 12.625,-3.207 4.142,0 7.5,-3.358 7.5,-7.5 0,-4.142 -3.358,-7.5 -7.5,-7.5 -9.764,0 -15.073,2.658 -19.339,4.793 -3.719,1.861 -6.406,3.207 -12.625,3.207 -0.21,0 -0.406,-0.005 -0.607,-0.008 V 383 h 8.5 c 4.142,0 7.5,-3.358 7.5,-7.5 V 351 h 24.5 c 4.142,0 7.5,-3.358 7.5,-7.5 v -32 c 0,-4.142 -3.358,-7.5 -7.5,-7.5 H 347 v -56.5 c 0,-4.142 -3.358,-7.5 -7.5,-7.5 H 322.066 L 299.533,71 H 396 v 121 h -16.5 c -4.142,0 -7.5,3.358 -7.5,7.5 v 48 c 0,4.142 3.358,7.5 7.5,7.5 h 48 c 4.142,0 7.5,-3.358 7.5,-7.5 v -48 c 0,-4.142 -3.358,-7.5 -7.5,-7.5 z M 276.934,15 285.601,80 H 249.4 l 8.667,-65 z M 282.388,95 267.5,114.141 252.612,95 Z m -37.006,15.135 12.617,16.222 -17.838,22.935 z M 250.835,160 267.5,138.573 284.165,160 Z M 281.394,175 267.5,188.894 253.606,175 Z m -45.172,3.829 20.671,20.671 -27.031,27.031 z M 267.5,210.106 297.394,240 h -59.787 z m 10.606,-10.606 20.671,-20.671 6.36,47.703 z m -1.105,-73.143 12.617,-16.222 5.221,39.157 z M 135.955,215 123.5,226.21 111.045,215 Z M 106.238,200 123.5,176.29 140.762,200 Z m 47.204,19.442 6.952,39.973 -25.683,-23.115 z m -6.286,-36.145 -14.379,-19.75 8.834,-12.134 z M 123.5,150.804 111.994,135 h 23.013 z m 9.692,-47.804 2.956,17 h -25.296 l 2.956,-17 z m -27.803,48.414 8.834,12.134 -14.379,19.75 z M 93.558,219.442 112.289,236.3 86.606,259.415 Z M 123.5,246.39 151.955,272 H 95.045 Z M 115,71 h 17 V 88 H 115 Z M 75,287 h 0.475 c 0.011,0 0.023,10e-4 0.034,10e-4 0.011,0 0.022,-10e-4 0.033,-10e-4 H 188 v 17 H 75 Z m 0,64 h 49 v 17 H 75 Z m 16,92.472 V 383 h 17 v 57.006 C 107.875,440.005 107.758,440 107.632,440 99.819,440 94.859,441.699 91,443.472 Z M 267.637,448 c -6.227,0 -8.917,-1.346 -12.641,-3.208 -4.269,-2.135 -9.582,-4.792 -19.351,-4.792 -9.771,0 -15.086,2.657 -19.356,4.792 -3.726,1.863 -6.418,3.208 -12.649,3.208 -6.231,0 -8.923,-1.346 -12.649,-3.208 -4.27,-2.135 -9.584,-4.792 -19.356,-4.792 -9.771,0 -15.086,2.657 -19.356,4.792 -3.726,1.863 -6.418,3.208 -12.649,3.208 -6.228,0 -8.919,-1.346 -12.644,-3.208 -1.216,-0.608 -2.521,-1.257 -3.985,-1.876 V 383 h 8.5 c 4.142,0 7.5,-3.358 7.5,-7.5 V 351 h 129 v 24.5 c 0,4.142 3.358,7.5 7.5,7.5 h 8.5 v 60.023 c -1.361,0.587 -2.586,1.197 -3.731,1.77 -3.723,1.862 -6.411,3.207 -12.633,3.207 z M 316,443.363 C 312.176,441.631 307.263,440 299.612,440 c -0.21,0 -0.406,0.008 -0.612,0.01 V 383 h 17 z M 332,368 h -49 v -17 h 49 z m 32,-32 H 43 V 319 H 364 Z M 332,304 H 203 v -49 h 16.495 c 0.005,0 0.01,0.001 0.015,0.001 0.007,0 0.014,-0.001 0.021,-0.001 h 95.939 c 0.007,0 0.014,0.001 0.021,0.001 0.005,0 0.01,-0.001 0.015,-0.001 H 332 Z M 295.266,39 H 399.75 L 412.5,56 H 297.533 Z M 420,240 h -33 v -33 h 33 z"
   id="path6"
   style="fill:#000000;fill-opacity:1;stroke:#00ffff;stroke-opacity:0" />
</g>
<g
   id="g10"
   transform="translate(22.5,16.5)">
</g>
<g
   id="g12"
   transform="translate(22.5,16.5)">
</g>
<g
   id="g14"
   transform="translate(22.5,16.5)">
</g>
<g
   id="g16"
   transform="translate(22.5,16.5)">
</g>
<g
   id="g18"
   transform="translate(22.5,16.5)">
</g>
<g
   id="g20"
   transform="translate(22.5,16.5)">
</g>
<g
   id="g22"
   transform="translate(22.5,16.5)">
</g>
<g
   id="g24"
   transform="translate(22.5,16.5)">
</g>
<g
   id="g26"
   transform="translate(22.5,16.5)">
</g>
<g
   id="g28"
   transform="translate(22.5,16.5)">
</g>
<g
   id="g30"
   transform="translate(22.5,16.5)">
</g>
<g
   id="g32"
   transform="translate(22.5,16.5)">
</g>
<g
   id="g34"
   transform="translate(22.5,16.5)">
</g>
<g
   id="g36"
   transform="translate(22.5,16.5)">
</g>
<g
   id="g38"
   transform="translate(22.5,16.5)">
</g>
</svg>
